# xmcd
#
# Track frame offsets: 
#        182
#        9557
#        24707
#        40982
#        53107
#        67232
#        82357
#        98732
#        110557
#        124802
#        138522
#        150782
#        163857
#        176930
#        191382
#        203432
#        215132
#        227700
#        239657
#        254097
#
# Disc length: 3571 seconds
#
# Revision: 1
# Processed by: cddbd v1.5.2PL0 Copyright (c) Steve Scherf et al.
# Submitted via: ExactAudioCopy v0.99pb4
#
DISCID=2a0df114
DTITLE=Ella Fitzgerald - The Gold Collection [CD1]
DYEAR=1995
DGENRE=Jazz
TTITLE0=Lover Come Back To Me
TTITLE1=Angel Eyes
TTITLE2=I'm Beginning To See The Light
TTITLE3=My Heart Belongs To Daddy
TTITLE4=Just One Of Those Things
TTITLE5=I Can't Give You Anything But Love
TTITLE6=Sophisticated Lady
TTITLE7=I'll Chase The Blues Away
TTITLE8=Crying My Heart Out For You
TTITLE9=Under The Spell Of The Blues
TTITLE10=My Last Affair
TTITLE11=Organ Grinder's Swing
TTITLE12=Shine
TTITLE13=Rock It For Me
TTITLE14=If Dreams Come True
TTITLE15=A-Tisket, A-Tasket
TTITLE16=Ella
TTITLE17=I Found My Yellow Basket
TTITLE18=Undecided
TTITLE19='Tain't What You Do
EXTD=
EXTT0=
EXTT1=
EXTT2=
EXTT3=
EXTT4=
EXTT5=
EXTT6=
EXTT7=
EXTT8=
EXTT9=
EXTT10=
EXTT11=
EXTT12=
EXTT13=
EXTT14=
EXTT15=
EXTT16=
EXTT17=
EXTT18=
EXTT19=
PLAYORDER=
